<svg width="113" height="75" viewBox="0 0 113 75" fill="none" xmlns="http://www.w3.org/2000/svg">
<path d="M99.7829 32.1264C99.3537 33.9491 97.9563 35.1779 96.665 34.8726C95.3736 34.5674 94.6762 32.8443 95.1053 31.0215C95.5345 29.1988 96.9319 27.9713 98.222 28.2766C99.5121 28.5818 100.213 30.3049 99.7816 32.1251" fill="#009AFF"/>
<path d="M9.3208 16.7941H20.8627V19.8596H13.2945V23.1807H19.9507V26.2884H13.2945V32.675H9.32592L9.3208 16.7941Z" fill="white"/>
<path d="M22.2947 26.5966V16.7612H26.262V26.2274C26.2791 27.0988 26.6372 27.9287 27.2595 28.5389C27.8818 29.1491 28.7185 29.4909 29.5901 29.4909C30.4616 29.4909 31.2984 29.1491 31.9207 28.5389C32.5429 27.9287 32.9011 27.0988 32.9181 26.2274V16.7612H36.8868V26.5966C36.8868 30.6904 34.0013 32.8836 29.5894 32.8836C25.1776 32.8836 22.2934 30.6904 22.2934 26.5966" fill="white"/>
<path d="M39.2792 16.7612H43.2491V29.5804H50.7432V32.6345H39.2792V16.7612Z" fill="white"/>
<path d="M52.2712 16.7612H56.2412V29.5804H63.7365V32.6345H52.2712V16.7612Z" fill="white"/>
<path d="M65.6085 19.8179H60.9488V16.7612H74.2329V19.8179H69.5745V32.6358H65.6046L65.6085 19.8179Z" fill="white"/>
<path d="M79.7279 16.7612H75.758V32.6358H79.7279V16.7612Z" fill="white"/>
<path d="M9.3208 36.0166H20.8627V39.0822H13.2945V42.4032H19.9507V45.5097H13.2945V51.8963H9.32592L9.3208 36.0166Z" fill="white"/>
<path d="M20.8649 43.9915C20.8649 38.1261 23.6009 35.7336 28.7843 35.7336C33.937 35.7336 36.6973 38.1248 36.6973 43.9915C36.6973 49.5645 33.937 52.1012 28.7843 52.1012C23.606 52.1012 20.8649 49.5645 20.8649 43.9915ZM32.6239 43.9915C32.6239 40.4418 31.4398 39.1377 28.7792 39.1377C26.0968 39.1377 24.9089 40.4431 24.9089 43.9915C24.9089 47.2474 26.0904 48.7265 28.7792 48.7265C31.4398 48.7265 32.6239 47.2474 32.6239 43.9915Z" fill="white"/>
<path d="M38.4144 35.9789H46.3542C50.1006 35.9789 51.8249 38.1261 51.8249 41.4292C51.8511 42.4152 51.5746 43.3855 51.0327 44.2097C50.4908 45.0338 49.7095 45.6723 48.7939 46.0391C49.2588 46.4529 49.6072 46.9814 49.8042 47.5718L51.6793 51.8598H47.537L45.7628 47.8171C45.6599 47.4972 45.4481 47.2236 45.1644 47.0436C44.8806 46.8637 44.5428 46.7889 44.2096 46.8323H42.3855V51.8598H38.4156L38.4144 35.9789ZM45.3119 43.7705C45.6362 43.8193 45.9673 43.7934 46.2801 43.6949C46.5928 43.5964 46.879 43.4279 47.1168 43.2022C47.3547 42.9764 47.5379 42.6994 47.6525 42.3921C47.7672 42.0849 47.8102 41.7556 47.7784 41.4292C47.7784 39.8492 47.012 39.0381 45.4792 39.0381H42.374V43.7641L45.3119 43.7705Z" fill="white"/>
<path d="M52.9904 44.0434C52.9904 38.7412 55.8247 35.7344 61.496 35.7344C63.1335 35.7174 64.7607 35.993 66.3013 36.548V40.0223C64.8732 39.4269 63.3397 39.1254 61.7924 39.1359C58.4879 39.1359 57.0344 40.6687 57.0344 44.0434C57.0344 47.2699 58.6617 48.7273 61.8422 48.7273C63.38 48.7386 64.9047 48.4447 66.3281 47.8625V51.3675C64.7796 51.885 63.1541 52.1347 61.5216 52.1058C55.9755 52.1058 52.9916 49.1002 52.9916 44.0472" fill="white"/>
<path d="M68.3436 35.9789H80.0541V39.0444H72.3148V42.3655H79.1421V45.4706H72.3148V48.7993H80.0541V51.856H68.3436V35.9789Z" fill="white"/>
<path d="M106.506 26.2513H111.974V23.1436H105.435C105.98 23.3479 106.818 23.9789 106.559 25.9447C106.546 26.0303 106.527 26.1453 106.509 26.2513" fill="white"/>
<path d="M104.754 32.6354H112.886V29.5813H105.707C105.452 30.4933 105.132 31.5203 104.754 32.6354Z" fill="white"/>
<path d="M101.178 16.7612V29.0771C101.671 27.6976 102.133 26.2798 102.393 25.4777L102.555 24.977C102.704 24.4108 103.043 23.913 103.515 23.5668C103.987 23.2206 104.564 23.047 105.148 23.075V19.8179H112.889V16.7612H101.178Z" fill="white"/>
<path d="M86.219 23.5157L89.3752 29.9266H91.5671L94.6991 23.5157V28.9098C95.0229 28.3579 95.4777 27.8944 96.0233 27.5602C96.5689 27.226 97.1885 27.0315 97.8273 26.9938C98.0586 26.9936 98.2892 27.0202 98.5145 27.073C98.5668 27.0858 98.6167 27.1114 98.6678 27.1267V16.7612H94.7719L90.484 25.5594L86.1704 16.7612H82.2491V32.6358H86.219V23.5157Z" fill="white"/>
<path d="M34.261 14.7146C37.0111 13.2202 39.8966 11.8202 42.9175 10.5467C68.8215 -0.365417 94.691 2.30546 94.691 14.7146H98.6609C98.6609 -0.601721 72.4759 -5.18474 42.3312 7.33171C37.4049 9.38741 32.6618 11.8572 28.1529 14.7146H34.261Z" fill="#009AFF"/>
<path d="M103.735 25.3643C103.374 26.4641 102.152 30.3458 101.226 32.3218C99.2351 36.5728 98.1123 36.4859 92.4282 37.9561C86.7441 39.4263 84.3709 44.0642 83.1907 46.4094C82.0104 48.7546 83.1281 50.3295 84.4539 48.259C85.699 46.0808 87.3018 44.1277 89.1953 42.4816C90.9976 41.2235 93.3517 40.369 91.0411 44.8204C88.6141 49.4724 83.6326 55.2714 75.178 60.184C71.021 62.3634 66.7378 64.293 62.3512 65.9626C36.2721 75.8453 11.0336 72.6877 4.99951 58.3664C2.6007 52.6746 3.59446 46.0403 7.23482 39.3765V34.0794C1.29273 42.8061 -0.750986 51.8342 2.45125 59.4381C9.01923 75.0214 35.2375 79.0513 62.4789 69.2862C69.743 66.6958 88.5247 59.4508 97.7789 45.0069C101.444 39.1097 104.001 32.5921 105.323 25.7756C105.632 23.4445 104.097 24.2607 103.736 25.3592" fill="#009AFF"/>
</svg>
